<svg xmlns="http://www.w3.org/2000/svg" width="256" height="256" viewBox="0 0 100 100"><rect width="100" height="100" rx="20" fill="#249874"></rect><path d="M50.44 58.22L37.21 58.22L37.21 81.99L26.09 81.99L26.09 18.01L50.57 18.01Q61.29 18.01 67.60 23.59Q73.91 29.17 73.91 38.35L73.91 38.35Q73.91 47.76 67.73 52.99Q61.56 58.22 50.44 58.22L50.44 58.22ZM37.21 26.97L37.21 49.30L50.57 49.30Q56.50 49.30 59.62 46.51Q62.74 43.72 62.74 38.44L62.74 38.44Q62.74 33.26 59.58 30.16Q56.42 27.06 50.88 26.97L50.88 26.97L37.21 26.97Z" fill="#4a4a4a"></path></svg>